<svg xmlns="http://www.w3.org/2000/svg" width="1200" height="932" viewBox="0 0 1200 932" role="img" aria-label="Répartition par catégorie">
<rect width="100%" height="100%" rx="24" fill="#0d1117"/>
<rect x="16" y="16" width="1168" height="900" rx="18" fill="#161b22" stroke="#30363d"/>
<text x="36" y="54" fill="#c9d1d9" font-family="Arial, Helvetica, sans-serif" font-size="28" font-weight="700">Répartition par catégorie</text>
<text x="36" y="84" fill="#8b949e" font-family="Arial, Helvetica, sans-serif" font-size="16">Top catégories du catalogue par volume de workflows</text>
<line x1="310.0" y1="105" x2="310.0" y2="892" stroke="#30363d" stroke-dasharray="4 6"/>
<text x="310.0" y="914" fill="#8b949e" font-family="Arial, Helvetica, sans-serif" font-size="13" text-anchor="middle">0</text>
<line x1="512.5" y1="105" x2="512.5" y2="892" stroke="#30363d" stroke-dasharray="4 6"/>
<text x="512.5" y="914" fill="#8b949e" font-family="Arial, Helvetica, sans-serif" font-size="13" text-anchor="middle">7</text>
<line x1="715.0" y1="105" x2="715.0" y2="892" stroke="#30363d" stroke-dasharray="4 6"/>
<text x="715.0" y="914" fill="#8b949e" font-family="Arial, Helvetica, sans-serif" font-size="13" text-anchor="middle">14</text>
<line x1="917.5" y1="105" x2="917.5" y2="892" stroke="#30363d" stroke-dasharray="4 6"/>
<text x="917.5" y="914" fill="#8b949e" font-family="Arial, Helvetica, sans-serif" font-size="13" text-anchor="middle">20</text>
<line x1="1120.0" y1="105" x2="1120.0" y2="892" stroke="#30363d" stroke-dasharray="4 6"/>
<text x="1120.0" y="914" fill="#8b949e" font-family="Arial, Helvetica, sans-serif" font-size="13" text-anchor="middle">27</text>
<rect x="310" y="115" width="810" height="28" rx="10" fill="#0d1117" stroke="#30363d"/>
<rect x="310" y="115" width="810.0" height="28" rx="10" fill="#58a6ff"/>
<text x="292" y="135" fill="#c9d1d9" font-family="Arial, Helvetica, sans-serif" font-size="16" text-anchor="end">image/text2img</text>
<text x="1130.0" y="135" fill="#c9d1d9" font-family="Arial, Helvetica, sans-serif" font-size="16" font-weight="700">27</text>
<rect x="310" y="153" width="810" height="28" rx="10" fill="#0d1117" stroke="#30363d"/>
<rect x="310" y="153" width="330.0" height="28" rx="10" fill="#3fb950"/>
<text x="292" y="173" fill="#c9d1d9" font-family="Arial, Helvetica, sans-serif" font-size="16" text-anchor="end">video/misc</text>
<text x="650.0" y="173" fill="#c9d1d9" font-family="Arial, Helvetica, sans-serif" font-size="16" font-weight="700">11</text>
<rect x="310" y="191" width="810" height="28" rx="10" fill="#0d1117" stroke="#30363d"/>
<rect x="310" y="191" width="300.0" height="28" rx="10" fill="#d29922"/>
<text x="292" y="211" fill="#c9d1d9" font-family="Arial, Helvetica, sans-serif" font-size="16" text-anchor="end">3D</text>
<text x="620.0" y="211" fill="#c9d1d9" font-family="Arial, Helvetica, sans-serif" font-size="16" font-weight="700">10</text>
<rect x="310" y="229" width="810" height="28" rx="10" fill="#0d1117" stroke="#30363d"/>
<rect x="310" y="229" width="300.0" height="28" rx="10" fill="#f78166"/>
<text x="292" y="249" fill="#c9d1d9" font-family="Arial, Helvetica, sans-serif" font-size="16" text-anchor="end">image/flux</text>
<text x="620.0" y="249" fill="#c9d1d9" font-family="Arial, Helvetica, sans-serif" font-size="16" font-weight="700">10</text>
<rect x="310" y="267" width="810" height="28" rx="10" fill="#0d1117" stroke="#30363d"/>
<rect x="310" y="267" width="300.0" height="28" rx="10" fill="#bc8cff"/>
<text x="292" y="287" fill="#c9d1d9" font-family="Arial, Helvetica, sans-serif" font-size="16" text-anchor="end">image/img2img</text>
<text x="620.0" y="287" fill="#c9d1d9" font-family="Arial, Helvetica, sans-serif" font-size="16" font-weight="700">10</text>
<rect x="310" y="305" width="810" height="28" rx="10" fill="#0d1117" stroke="#30363d"/>
<rect x="310" y="305" width="300.0" height="28" rx="10" fill="#58a6ff"/>
<text x="292" y="325" fill="#c9d1d9" font-family="Arial, Helvetica, sans-serif" font-size="16" text-anchor="end">image/upscale</text>
<text x="620.0" y="325" fill="#c9d1d9" font-family="Arial, Helvetica, sans-serif" font-size="16" font-weight="700">10</text>
<rect x="310" y="343" width="810" height="28" rx="10" fill="#0d1117" stroke="#30363d"/>
<rect x="310" y="343" width="210.0" height="28" rx="10" fill="#3fb950"/>
<text x="292" y="363" fill="#c9d1d9" font-family="Arial, Helvetica, sans-serif" font-size="16" text-anchor="end">video/wan</text>
<text x="530.0" y="363" fill="#c9d1d9" font-family="Arial, Helvetica, sans-serif" font-size="16" font-weight="700">7</text>
<rect x="310" y="381" width="810" height="28" rx="10" fill="#0d1117" stroke="#30363d"/>
<rect x="310" y="381" width="210.0" height="28" rx="10" fill="#d29922"/>
<text x="292" y="401" fill="#c9d1d9" font-family="Arial, Helvetica, sans-serif" font-size="16" text-anchor="end">workflow audio</text>
<text x="530.0" y="401" fill="#c9d1d9" font-family="Arial, Helvetica, sans-serif" font-size="16" font-weight="700">7</text>
<rect x="310" y="419" width="810" height="28" rx="10" fill="#0d1117" stroke="#30363d"/>
<rect x="310" y="419" width="180.0" height="28" rx="10" fill="#f78166"/>
<text x="292" y="439" fill="#c9d1d9" font-family="Arial, Helvetica, sans-serif" font-size="16" text-anchor="end">image/sdxl</text>
<text x="500.0" y="439" fill="#c9d1d9" font-family="Arial, Helvetica, sans-serif" font-size="16" font-weight="700">6</text>
<rect x="310" y="457" width="810" height="28" rx="10" fill="#0d1117" stroke="#30363d"/>
<rect x="310" y="457" width="150.0" height="28" rx="10" fill="#bc8cff"/>
<text x="292" y="477" fill="#c9d1d9" font-family="Arial, Helvetica, sans-serif" font-size="16" text-anchor="end">game_assets/textures</text>
<text x="470.0" y="477" fill="#c9d1d9" font-family="Arial, Helvetica, sans-serif" font-size="16" font-weight="700">5</text>
<rect x="310" y="495" width="810" height="28" rx="10" fill="#0d1117" stroke="#30363d"/>
<rect x="310" y="495" width="150.0" height="28" rx="10" fill="#58a6ff"/>
<text x="292" y="515" fill="#c9d1d9" font-family="Arial, Helvetica, sans-serif" font-size="16" text-anchor="end">image/ipadapter</text>
<text x="470.0" y="515" fill="#c9d1d9" font-family="Arial, Helvetica, sans-serif" font-size="16" font-weight="700">5</text>
<rect x="310" y="533" width="810" height="28" rx="10" fill="#0d1117" stroke="#30363d"/>
<rect x="310" y="533" width="150.0" height="28" rx="10" fill="#3fb950"/>
<text x="292" y="553" fill="#c9d1d9" font-family="Arial, Helvetica, sans-serif" font-size="16" text-anchor="end">image/textures</text>
<text x="470.0" y="553" fill="#c9d1d9" font-family="Arial, Helvetica, sans-serif" font-size="16" font-weight="700">5</text>
</svg>