<svg xmlns="http://www.w3.org/2000/svg" width="1200" height="932" viewBox="0 0 1200 932" role="img" aria-label="Top nœuds les plus présents">
<rect width="100%" height="100%" rx="24" fill="#0d1117"/>
<rect x="16" y="16" width="1168" height="900" rx="18" fill="#161b22" stroke="#30363d"/>
<text x="36" y="54" fill="#c9d1d9" font-family="Arial, Helvetica, sans-serif" font-size="28" font-weight="700">Top nœuds les plus présents</text>
<text x="36" y="84" fill="#8b949e" font-family="Arial, Helvetica, sans-serif" font-size="16">Fréquence d'apparition par type de nœud</text>
<line x1="310.0" y1="105" x2="310.0" y2="892" stroke="#30363d" stroke-dasharray="4 6"/>
<text x="310.0" y="914" fill="#8b949e" font-family="Arial, Helvetica, sans-serif" font-size="13" text-anchor="middle">0</text>
<line x1="512.5" y1="105" x2="512.5" y2="892" stroke="#30363d" stroke-dasharray="4 6"/>
<text x="512.5" y="914" fill="#8b949e" font-family="Arial, Helvetica, sans-serif" font-size="13" text-anchor="middle">28</text>
<line x1="715.0" y1="105" x2="715.0" y2="892" stroke="#30363d" stroke-dasharray="4 6"/>
<text x="715.0" y="914" fill="#8b949e" font-family="Arial, Helvetica, sans-serif" font-size="13" text-anchor="middle">56</text>
<line x1="917.5" y1="105" x2="917.5" y2="892" stroke="#30363d" stroke-dasharray="4 6"/>
<text x="917.5" y="914" fill="#8b949e" font-family="Arial, Helvetica, sans-serif" font-size="13" text-anchor="middle">83</text>
<line x1="1120.0" y1="105" x2="1120.0" y2="892" stroke="#30363d" stroke-dasharray="4 6"/>
<text x="1120.0" y="914" fill="#8b949e" font-family="Arial, Helvetica, sans-serif" font-size="13" text-anchor="middle">111</text>
<rect x="310" y="115" width="810" height="28" rx="10" fill="#0d1117" stroke="#30363d"/>
<rect x="310" y="115" width="810.0" height="28" rx="10" fill="#58a6ff"/>
<text x="292" y="135" fill="#c9d1d9" font-family="Arial, Helvetica, sans-serif" font-size="16" text-anchor="end">KSampler</text>
<text x="1130.0" y="135" fill="#c9d1d9" font-family="Arial, Helvetica, sans-serif" font-size="16" font-weight="700">111</text>
<rect x="310" y="153" width="810" height="28" rx="10" fill="#0d1117" stroke="#30363d"/>
<rect x="310" y="153" width="788.1" height="28" rx="10" fill="#3fb950"/>
<text x="292" y="173" fill="#c9d1d9" font-family="Arial, Helvetica, sans-serif" font-size="16" text-anchor="end">VAEDecode</text>
<text x="1108.1" y="173" fill="#c9d1d9" font-family="Arial, Helvetica, sans-serif" font-size="16" font-weight="700">108</text>
<rect x="310" y="191" width="810" height="28" rx="10" fill="#0d1117" stroke="#30363d"/>
<rect x="310" y="191" width="693.2" height="28" rx="10" fill="#d29922"/>
<text x="292" y="211" fill="#c9d1d9" font-family="Arial, Helvetica, sans-serif" font-size="16" text-anchor="end">CLIPTextEncode</text>
<text x="1013.2" y="211" fill="#c9d1d9" font-family="Arial, Helvetica, sans-serif" font-size="16" font-weight="700">95</text>
<rect x="310" y="229" width="810" height="28" rx="10" fill="#0d1117" stroke="#30363d"/>
<rect x="310" y="229" width="642.2" height="28" rx="10" fill="#f78166"/>
<text x="292" y="249" fill="#c9d1d9" font-family="Arial, Helvetica, sans-serif" font-size="16" text-anchor="end">SaveImage</text>
<text x="962.2" y="249" fill="#c9d1d9" font-family="Arial, Helvetica, sans-serif" font-size="16" font-weight="700">88</text>
<rect x="310" y="267" width="810" height="28" rx="10" fill="#0d1117" stroke="#30363d"/>
<rect x="310" y="267" width="598.4" height="28" rx="10" fill="#bc8cff"/>
<text x="292" y="287" fill="#c9d1d9" font-family="Arial, Helvetica, sans-serif" font-size="16" text-anchor="end">LoadImage</text>
<text x="918.4" y="287" fill="#c9d1d9" font-family="Arial, Helvetica, sans-serif" font-size="16" font-weight="700">82</text>
<rect x="310" y="305" width="810" height="28" rx="10" fill="#0d1117" stroke="#30363d"/>
<rect x="310" y="305" width="561.9" height="28" rx="10" fill="#58a6ff"/>
<text x="292" y="325" fill="#c9d1d9" font-family="Arial, Helvetica, sans-serif" font-size="16" text-anchor="end">CheckpointLoaderSimple</text>
<text x="881.9" y="325" fill="#c9d1d9" font-family="Arial, Helvetica, sans-serif" font-size="16" font-weight="700">77</text>
<rect x="310" y="343" width="810" height="28" rx="10" fill="#0d1117" stroke="#30363d"/>
<rect x="310" y="343" width="343.0" height="28" rx="10" fill="#3fb950"/>
<text x="292" y="363" fill="#c9d1d9" font-family="Arial, Helvetica, sans-serif" font-size="16" text-anchor="end">ControlNetApplyAdvanced</text>
<text x="663.0" y="363" fill="#c9d1d9" font-family="Arial, Helvetica, sans-serif" font-size="16" font-weight="700">47</text>
<rect x="310" y="381" width="810" height="28" rx="10" fill="#0d1117" stroke="#30363d"/>
<rect x="310" y="381" width="343.0" height="28" rx="10" fill="#d29922"/>
<text x="292" y="401" fill="#c9d1d9" font-family="Arial, Helvetica, sans-serif" font-size="16" text-anchor="end">EmptyLatentImage</text>
<text x="663.0" y="401" fill="#c9d1d9" font-family="Arial, Helvetica, sans-serif" font-size="16" font-weight="700">47</text>
<rect x="310" y="419" width="810" height="28" rx="10" fill="#0d1117" stroke="#30363d"/>
<rect x="310" y="419" width="328.4" height="28" rx="10" fill="#f78166"/>
<text x="292" y="439" fill="#c9d1d9" font-family="Arial, Helvetica, sans-serif" font-size="16" text-anchor="end">ControlNetLoader</text>
<text x="648.4" y="439" fill="#c9d1d9" font-family="Arial, Helvetica, sans-serif" font-size="16" font-weight="700">45</text>
<rect x="310" y="457" width="810" height="28" rx="10" fill="#0d1117" stroke="#30363d"/>
<rect x="310" y="457" width="255.4" height="28" rx="10" fill="#bc8cff"/>
<text x="292" y="477" fill="#c9d1d9" font-family="Arial, Helvetica, sans-serif" font-size="16" text-anchor="end">UNETLoader</text>
<text x="575.4" y="477" fill="#c9d1d9" font-family="Arial, Helvetica, sans-serif" font-size="16" font-weight="700">35</text>
<rect x="310" y="495" width="810" height="28" rx="10" fill="#0d1117" stroke="#30363d"/>
<rect x="310" y="495" width="255.4" height="28" rx="10" fill="#58a6ff"/>
<text x="292" y="515" fill="#c9d1d9" font-family="Arial, Helvetica, sans-serif" font-size="16" text-anchor="end">VAELoader</text>
<text x="575.4" y="515" fill="#c9d1d9" font-family="Arial, Helvetica, sans-serif" font-size="16" font-weight="700">35</text>
<rect x="310" y="533" width="810" height="28" rx="10" fill="#0d1117" stroke="#30363d"/>
<rect x="310" y="533" width="255.4" height="28" rx="10" fill="#3fb950"/>
<text x="292" y="553" fill="#c9d1d9" font-family="Arial, Helvetica, sans-serif" font-size="16" text-anchor="end">VAEEncode</text>
<text x="575.4" y="553" fill="#c9d1d9" font-family="Arial, Helvetica, sans-serif" font-size="16" font-weight="700">35</text>
</svg>