<svg xmlns="http://www.w3.org/2000/svg" width="1200" height="500" viewBox="0 0 1200 500" role="img" aria-label="Benchmark structurel">
<rect width="100%" height="100%" rx="24" fill="#0d1117"/>
<rect x="16" y="16" width="1168" height="468" rx="18" fill="#161b22" stroke="#30363d"/>
<text x="36" y="54" fill="#c9d1d9" font-family="Arial, Helvetica, sans-serif" font-size="28" font-weight="700">Benchmark structurel</text>
<text x="36" y="84" fill="#8b949e" font-family="Arial, Helvetica, sans-serif" font-size="16">Lecture rapide du niveau de couverture, densité et équilibre du catalogue</text>
<text x="40" y="94" fill="#8b949e" font-family="Arial, Helvetica, sans-serif" font-size="13">INDICATEUR</text>
<text x="410" y="94" fill="#8b949e" font-family="Arial, Helvetica, sans-serif" font-size="13">NIVEAU</text>
<text x="740" y="94" fill="#8b949e" font-family="Arial, Helvetica, sans-serif" font-size="13">VALEUR</text>
<text x="890" y="94" fill="#8b949e" font-family="Arial, Helvetica, sans-serif" font-size="13">LECTURE</text>
<line x1="32" y1="148" x2="1168" y2="148" stroke="#30363d"/>
<text x="40" y="118" fill="#c9d1d9" font-family="Arial, Helvetica, sans-serif" font-size="18" font-weight="700">Validation</text>
<rect x="410" y="100" width="290" height="20" rx="8" fill="#0d1117" stroke="#30363d"/>
<rect x="410" y="100" width="290.0" height="20" rx="8" fill="#3fb950"/>
<text x="740" y="118" fill="#c9d1d9" font-family="Arial, Helvetica, sans-serif" font-size="18" font-weight="700">100%</text>
<text x="890" y="118" fill="#8b949e" font-family="Arial, Helvetica, sans-serif" font-size="15">Toutes les entrées du</text>
<text x="890" y="136" fill="#8b949e" font-family="Arial, Helvetica, sans-serif" font-size="15">catalogue sont marquées</text>
<line x1="32" y1="220" x2="1168" y2="220" stroke="#30363d"/>
<text x="40" y="190" fill="#c9d1d9" font-family="Arial, Helvetica, sans-serif" font-size="18" font-weight="700">Orientation UI</text>
<rect x="410" y="172" width="290" height="20" rx="8" fill="#0d1117" stroke="#30363d"/>
<rect x="410" y="172" width="281.3" height="20" rx="8" fill="#58a6ff"/>
<text x="740" y="190" fill="#c9d1d9" font-family="Arial, Helvetica, sans-serif" font-size="18" font-weight="700">97.0%</text>
<text x="890" y="190" fill="#8b949e" font-family="Arial, Helvetica, sans-serif" font-size="15">Catalogage très orienté</text>
<text x="890" y="208" fill="#8b949e" font-family="Arial, Helvetica, sans-serif" font-size="15">interface ComfyUI,</text>
<line x1="32" y1="292" x2="1168" y2="292" stroke="#30363d"/>
<text x="40" y="262" fill="#c9d1d9" font-family="Arial, Helvetica, sans-serif" font-size="18" font-weight="700">Couverture catégories</text>
<rect x="410" y="244" width="290" height="20" rx="8" fill="#0d1117" stroke="#30363d"/>
<rect x="410" y="244" width="275.5" height="20" rx="8" fill="#d29922"/>
<text x="740" y="262" fill="#c9d1d9" font-family="Arial, Helvetica, sans-serif" font-size="18" font-weight="700">19</text>
<text x="890" y="262" fill="#8b949e" font-family="Arial, Helvetica, sans-serif" font-size="15">Bonne largeur de</text>
<text x="890" y="280" fill="#8b949e" font-family="Arial, Helvetica, sans-serif" font-size="15">couverture sans</text>
<line x1="32" y1="364" x2="1168" y2="364" stroke="#30363d"/>
<text x="40" y="334" fill="#c9d1d9" font-family="Arial, Helvetica, sans-serif" font-size="18" font-weight="700">Densité moyenne</text>
<rect x="410" y="316" width="290" height="20" rx="8" fill="#0d1117" stroke="#30363d"/>
<rect x="410" y="316" width="196.1" height="20" rx="8" fill="#bc8cff"/>
<text x="740" y="334" fill="#c9d1d9" font-family="Arial, Helvetica, sans-serif" font-size="18" font-weight="700">13.5 nœuds</text>
<text x="890" y="334" fill="#8b949e" font-family="Arial, Helvetica, sans-serif" font-size="15">Complexité moyenne</text>
<text x="890" y="352" fill="#8b949e" font-family="Arial, Helvetica, sans-serif" font-size="15">modérée, lisible sans</text>
<line x1="32" y1="436" x2="1168" y2="436" stroke="#30363d"/>
<text x="40" y="406" fill="#c9d1d9" font-family="Arial, Helvetica, sans-serif" font-size="18" font-weight="700">Référence dominante</text>
<rect x="410" y="388" width="290" height="20" rx="8" fill="#0d1117" stroke="#30363d"/>
<rect x="410" y="388" width="231.1" height="20" rx="8" fill="#f78166"/>
<text x="740" y="406" fill="#c9d1d9" font-family="Arial, Helvetica, sans-serif" font-size="18" font-weight="700">20.3%</text>
<text x="890" y="406" fill="#8b949e" font-family="Arial, Helvetica, sans-serif" font-size="15">La catégorie principale</text>
<text x="890" y="424" fill="#8b949e" font-family="Arial, Helvetica, sans-serif" font-size="15">existe sans écraser</text>
</svg>