<svg xmlns="http://www.w3.org/2000/svg" width="900" height="520" viewBox="0 0 900 520" role="img" aria-label="Répartition par domaine">
<rect width="100%" height="100%" rx="24" fill="#0d1117"/>
<rect x="16" y="16" width="868" height="488" rx="18" fill="#161b22" stroke="#30363d"/>
<text x="36" y="54" fill="#c9d1d9" font-family="Arial, Helvetica, sans-serif" font-size="28" font-weight="700">Répartition par domaine</text>
<text x="36" y="84" fill="#8b949e" font-family="Arial, Helvetica, sans-serif" font-size="16">Vue macro du portefeuille de workflows</text>
<circle cx="220" cy="270" r="120" fill="none" stroke="#0d1117" stroke-width="34"/>
<circle cx="220" cy="270" r="120" fill="none" stroke="#58a6ff" stroke-width="34" stroke-dasharray="56.69 697.29" stroke-dashoffset="0.00" transform="rotate(-90 220 270)" stroke-linecap="butt"/>
<circle cx="220" cy="270" r="120" fill="none" stroke="#3fb950" stroke-width="34" stroke-dasharray="28.35 725.64" stroke-dashoffset="-56.69" transform="rotate(-90 220 270)" stroke-linecap="butt"/>
<circle cx="220" cy="270" r="120" fill="none" stroke="#d29922" stroke-width="34" stroke-dasharray="459.19 294.79" stroke-dashoffset="-85.04" transform="rotate(-90 220 270)" stroke-linecap="butt"/>
<circle cx="220" cy="270" r="120" fill="none" stroke="#f78166" stroke-width="34" stroke-dasharray="170.07 583.91" stroke-dashoffset="-544.23" transform="rotate(-90 220 270)" stroke-linecap="butt"/>
<circle cx="220" cy="270" r="120" fill="none" stroke="#bc8cff" stroke-width="34" stroke-dasharray="39.68 714.30" stroke-dashoffset="-714.30" transform="rotate(-90 220 270)" stroke-linecap="butt"/>
<text x="220" y="264" fill="#c9d1d9" font-family="Arial, Helvetica, sans-serif" font-size="38" font-weight="700" text-anchor="middle">133</text>
<text x="220" y="296" fill="#8b949e" font-family="Arial, Helvetica, sans-serif" font-size="16" text-anchor="middle">workflows</text>
<rect x="430" y="134" width="18" height="18" rx="4" fill="#58a6ff"/>
<text x="460" y="150" fill="#c9d1d9" font-family="Arial, Helvetica, sans-serif" font-size="18" font-weight="700">3D</text>
<text x="460" y="172" fill="#8b949e" font-family="Arial, Helvetica, sans-serif" font-size="15">10 workflows · 7.5%</text>
<rect x="430" y="192" width="18" height="18" rx="4" fill="#3fb950"/>
<text x="460" y="208" fill="#c9d1d9" font-family="Arial, Helvetica, sans-serif" font-size="18" font-weight="700">game_assets</text>
<text x="460" y="230" fill="#8b949e" font-family="Arial, Helvetica, sans-serif" font-size="15">5 workflows · 3.8%</text>
<rect x="430" y="250" width="18" height="18" rx="4" fill="#d29922"/>
<text x="460" y="266" fill="#c9d1d9" font-family="Arial, Helvetica, sans-serif" font-size="18" font-weight="700">image</text>
<text x="460" y="288" fill="#8b949e" font-family="Arial, Helvetica, sans-serif" font-size="15">81 workflows · 60.9%</text>
<rect x="430" y="308" width="18" height="18" rx="4" fill="#f78166"/>
<text x="460" y="324" fill="#c9d1d9" font-family="Arial, Helvetica, sans-serif" font-size="18" font-weight="700">video</text>
<text x="460" y="346" fill="#8b949e" font-family="Arial, Helvetica, sans-serif" font-size="15">30 workflows · 22.6%</text>
<rect x="430" y="366" width="18" height="18" rx="4" fill="#bc8cff"/>
<text x="460" y="382" fill="#c9d1d9" font-family="Arial, Helvetica, sans-serif" font-size="18" font-weight="700">workflow audio</text>
<text x="460" y="404" fill="#8b949e" font-family="Arial, Helvetica, sans-serif" font-size="15">7 workflows · 5.3%</text>
</svg>